<?xml version="1.0" encoding="utf-8"?>
<!-- Generator: Adobe Illustrator 25.0.0, SVG Export Plug-In . SVG Version: 6.00 Build 0)  -->
<svg version="1.1" id="Capa_1" xmlns="http://www.w3.org/2000/svg" xmlns:xlink="http://www.w3.org/1999/xlink" x="0px" y="0px"
	 viewBox="0 0 161 102.56" style="enable-background:new 0 0 161 102.56;" xml:space="preserve">
<style type="text/css">
	.st0{fill:#05090C;}
	.st1{fill:#103240;}
	.st2{clip-path:url(#SVGID_2_);}
	.st3{fill:none;stroke:url(#SVGID_3_);stroke-miterlimit:10;}
	.st4{fill:url(#SVGID_4_);}
	.st5{fill:url(#SVGID_5_);}
	.st6{stroke:#000000;stroke-miterlimit:10;}
	.st7{fill:url(#SVGID_6_);}
</style>
<g>
	<path class="st0" d="M104.42,55.95c-0.29-0.46-0.68-0.86-1.16-1.19c-0.48-0.33-1.05-0.61-1.71-0.84c-0.66-0.23-1.34-0.42-2.07-0.57
		c-0.72-0.16-1.46-0.29-2.22-0.4c-0.76-0.11-1.5-0.22-2.21-0.33c-1.22-0.18-2.24-0.36-3.06-0.57s-1.48-0.43-1.98-0.7
		c-0.5-0.26-0.85-0.56-1.06-0.89c-0.21-0.33-0.31-0.72-0.31-1.16c0-0.97,0.56-1.74,1.69-2.29c0.95-0.47,2.29-0.73,3.99-0.8
		c0.71,0.03,1.38,0.09,1.96,0.21c0.81,0.16,1.51,0.38,2.1,0.67c0.59,0.28,1.07,0.62,1.44,1.02c0.37,0.39,0.64,0.82,0.8,1.27h3.52
		c-0.13-0.69-0.44-1.31-0.93-1.86c-0.48-0.55-1.12-1.01-1.9-1.4c-0.78-0.38-1.69-0.67-2.74-0.88c-1.04-0.2-2.19-0.3-3.44-0.3
		c-0.3,0-1.47,0-1.8,0c-1.25,0-2.39,0.11-3.43,0.33c-1.03,0.22-1.92,0.52-2.66,0.91c-0.74,0.39-1.31,0.86-1.71,1.41
		c-0.4,0.55-0.6,1.15-0.6,1.81c0,0.61,0.15,1.14,0.45,1.6c0.3,0.46,0.76,0.87,1.38,1.22c0.63,0.36,1.42,0.67,2.38,0.94
		c0.96,0.27,2.11,0.51,3.45,0.71c1.62,0.24,2.98,0.47,4.08,0.7c1.09,0.23,1.98,0.49,2.65,0.78c0.67,0.29,1.15,0.63,1.43,1.02
		c0.28,0.39,0.42,0.87,0.42,1.43c0,0.54-0.16,1.02-0.49,1.45c-0.33,0.43-0.8,0.8-1.42,1.1c-0.62,0.3-1.36,0.54-2.23,0.7
		c-0.65,0.12-1.38,0.18-2.14,0.21c-0.67-0.03-1.33-0.07-1.94-0.16c-0.92-0.12-1.75-0.34-2.47-0.64c-0.72-0.3-1.33-0.7-1.82-1.21
		c-0.49-0.51-0.83-1.14-1.01-1.91h-3.56c0.07,0.8,0.34,1.51,0.78,2.15c0.45,0.64,1.09,1.18,1.93,1.63c0.84,0.45,1.88,0.8,3.12,1.04
		c1.24,0.24,2.68,0.36,4.33,0.36c0.18,0,1.36,0,1.8,0c1.27,0,2.44-0.12,3.52-0.36c1.08-0.24,2.01-0.58,2.79-1.02
		c0.78-0.44,1.39-0.96,1.83-1.57c0.44-0.6,0.66-1.27,0.66-1.99C104.85,56.95,104.71,56.41,104.42,55.95z"/>
	<path class="st0" d="M126.46,61.24l-14.6,0l0-7.23l12.98,0h1.86l0-1.29h-1.86l-12.98,0l0-6.51l13.97,0h1.86l0-1.29h-1.86l-15.83,0
		h-1.86l0,17.59H110l16.45,0h1.86v-1.29H126.46z"/>
	<path class="st0" d="M151.46,57.47l-1.8,0c-0.33,1.27-1.18,2.23-2.56,2.89c-1.2,0.58-2.7,0.88-4.47,0.96
		c-1-0.06-1.93-0.22-2.79-0.47c-1.14-0.33-2.12-0.82-2.94-1.46c-0.81-0.64-1.44-1.44-1.88-2.39c-0.44-0.95-0.66-2.05-0.66-3.29
		c0-1.24,0.22-2.34,0.66-3.28c0.44-0.94,1.07-1.72,1.88-2.35c0.81-0.63,1.8-1.1,2.96-1.42c0.85-0.24,1.78-0.39,2.78-0.45
		c0.73,0.03,1.44,0.1,2.1,0.25c0.87,0.19,1.65,0.44,2.32,0.77c0.67,0.33,1.23,0.71,1.68,1.15c0.45,0.44,0.75,0.92,0.92,1.42l1.8,0
		h0.06h1.8c-0.22-0.72-0.63-1.37-1.21-1.97c-0.58-0.6-1.3-1.11-2.15-1.54c-0.85-0.43-1.81-0.76-2.88-1
		c-1.07-0.24-2.19-0.36-3.37-0.36c-0.39,0-1.58,0-1.8,0c-1.72,0-3.27,0.2-4.65,0.61c-1.38,0.41-2.56,1-3.54,1.76
		c-0.98,0.76-1.73,1.68-2.25,2.76c-0.52,1.08-0.78,2.29-0.78,3.64c0,1.36,0.26,2.59,0.78,3.68c0.52,1.09,1.27,2.03,2.24,2.79
		c0.97,0.77,2.15,1.36,3.53,1.78c1.38,0.42,2.94,0.63,4.67,0.63c0.25,0,1.43,0,1.8,0c1.27,0,2.45-0.11,3.54-0.34
		c1.09-0.23,2.06-0.56,2.89-1c0.84-0.44,1.53-0.97,2.09-1.61c0.55-0.64,0.92-1.36,1.1-2.17h-1.8H151.46z"/>
	<path class="st1" d="M52.98,62.53h-2.04l-2.52-4.68c-0.25-0.45-0.52-0.87-0.82-1.27c-0.3-0.4-0.65-0.74-1.05-1.04
		c-0.4-0.29-0.86-0.53-1.38-0.7c-0.52-0.17-1.12-0.26-1.82-0.26l-8.87,0l0,7.94h-1.85l0-17.59l11.41,0c1.07,0,2.1,0.07,3.09,0.2
		c1,0.13,1.88,0.37,2.66,0.71c0.78,0.34,1.4,0.82,1.86,1.42c0.46,0.61,0.69,1.38,0.69,2.32c0,0.59-0.1,1.14-0.31,1.65
		c-0.21,0.51-0.52,0.96-0.95,1.37c-0.42,0.4-0.96,0.74-1.62,1.03s-1.42,0.49-2.3,0.62c0.48,0.26,0.87,0.5,1.18,0.74
		c0.31,0.24,0.57,0.49,0.8,0.76c0.22,0.27,0.42,0.56,0.6,0.88c0.18,0.32,0.38,0.69,0.61,1.11L52.98,62.53z M34.48,53.31h8.8
		c1.25,0,2.32-0.06,3.22-0.19s1.63-0.34,2.21-0.63s1.01-0.68,1.28-1.15c0.28-0.47,0.42-1.05,0.42-1.74c0-1.21-0.55-2.08-1.66-2.59
		c-1.1-0.52-2.75-0.78-4.94-0.78l-9.33,0L34.48,53.31z"/>
	<path class="st1" d="M77.45,45l-9.91,10.04l0,7.55h-1.85l0-7.55L55.68,45l2.18,0l8.75,8.69L75.29,45H77.45z"/>
	<path class="st1" d="M27.56,49.78c-0.16-0.51-0.47-0.98-0.91-1.42c-0.45-0.44-1-0.82-1.67-1.14c-0.67-0.32-1.44-0.58-2.31-0.77
		c-0.87-0.19-1.8-0.28-2.8-0.28c-1.41,0-2.69,0.16-3.84,0.48s-2.13,0.79-2.94,1.42s-1.43,1.4-1.87,2.34
		c-0.44,0.93-0.66,2.02-0.66,3.26s0.22,2.33,0.66,3.27s1.06,1.73,1.87,2.37c0.81,0.64,1.78,1.12,2.92,1.45
		c1.14,0.33,2.4,0.49,3.8,0.49c2.11,0,3.85-0.33,5.22-0.98s2.21-1.61,2.54-2.87h1.85c-0.18,0.8-0.54,1.52-1.09,2.16
		c-0.55,0.63-1.24,1.17-2.07,1.6c-0.83,0.43-1.79,0.76-2.88,0.99c-1.08,0.23-2.26,0.34-3.52,0.34c-1.72,0-3.27-0.21-4.65-0.63
		s-2.54-1.01-3.51-1.77s-1.71-1.69-2.23-2.78c-0.52-1.09-0.78-2.31-0.78-3.66c0-1.34,0.26-2.55,0.78-3.62
		c0.52-1.07,1.27-1.99,2.24-2.75c0.97-0.76,2.15-1.34,3.52-1.75s2.92-0.61,4.62-0.61c1.17,0,2.29,0.12,3.35,0.36
		c1.06,0.24,2.02,0.57,2.86,1s1.56,0.94,2.14,1.53c0.58,0.59,0.98,1.25,1.2,1.96H27.56z"/>
</g>
<g>
	<defs>
		<path id="SVGID_1_" d="M38.9,6.44v96.11h90.41V6.44H38.9z M121.83,64.55H39.89V43.07h81.94V64.55z"/>
	</defs>
	<clipPath id="SVGID_2_">
		<use xlink:href="#SVGID_1_"  style="overflow:visible;"/>
	</clipPath>
	<g class="st2">
		<linearGradient id="SVGID_3_" gradientUnits="userSpaceOnUse" x1="43.605" y1="53.8784" x2="118.3798" y2="53.8784">
			<stop  offset="0" style="stop-color:#50B2BF"/>
			<stop  offset="1" style="stop-color:#215B73"/>
		</linearGradient>
		<path class="st3" d="M81,10.29L44.11,26.45v22.12c0,15.6,7.49,30.01,19.65,37.81L81,97.42l17.23-11.05
			c12.16-7.8,19.65-22.21,19.65-37.8V26.45L81,10.29z"/>
		<g>
			<linearGradient id="SVGID_4_" gradientUnits="userSpaceOnUse" x1="80.9924" y1="75.3299" x2="108.1023" y2="75.3299">
				<stop  offset="0" style="stop-color:#50B2BF"/>
				<stop  offset="1" style="stop-color:#215B73"/>
			</linearGradient>
			<path class="st4" d="M108.1,66.46c-2.83,5.59-6.98,10.35-12.15,13.67l-14.96,9.59V77.64l9.47-6.07
				c3.91-2.52,7.03-6.25,9.01-10.64L108.1,66.46z"/>
			<linearGradient id="SVGID_5_" gradientUnits="userSpaceOnUse" x1="80.9924" y1="23.9144" x2="100.0709" y2="23.9144">
				<stop  offset="0" style="stop-color:#50B2BF"/>
				<stop  offset="1" style="stop-color:#215B73"/>
			</linearGradient>
			<polygon class="st5" points="100.07,24.73 90.06,31.45 80.99,27.47 80.99,16.37 			"/>
		</g>
		<path class="st6" d="M80.99,37.54"/>
		<linearGradient id="SVGID_6_" gradientUnits="userSpaceOnUse" x1="49.7651" y1="53.049" x2="80.9924" y2="53.049">
			<stop  offset="0" style="stop-color:#50B2BF"/>
			<stop  offset="1" style="stop-color:#215B73"/>
		</linearGradient>
		<path class="st7" d="M59.93,36.71v12.35c0,9.3,4.44,17.93,11.59,22.52l9.47,6.07v12.08l-14.96-9.59
			C56,73.69,49.77,61.8,49.77,49.06V30.06l0.95-0.42l30.28-13.27v11.1L61,36.25h-0.02L59.93,36.71z"/>
	</g>
</g>
</svg>
